<svg width="10" height="12" viewBox="0 0 10 12" fill="none" xmlns="http://www.w3.org/2000/svg">
<circle cx="5" cy="6" r="4.9" fill="black" stroke="white" stroke-width="0.2"/>
<path d="M7.04 8.16C7.04 8.392 6.956 8.592 6.788 8.76C6.628 8.92 6.432 9 6.2 9H2.84V8.16H6.08V6.48H3.68C3.448 6.48 3.248 6.4 3.08 6.24C2.92 6.072 2.84 5.872 2.84 5.64V3.96C2.84 3.728 2.92 3.532 3.08 3.372C3.248 3.204 3.448 3.12 3.68 3.12H7.04V3.96H3.8V5.64H6.2C6.432 5.64 6.628 5.724 6.788 5.892C6.956 6.052 7.04 6.248 7.04 6.48V8.16Z" fill="white"/>
</svg>
